<?xml version="1.0" encoding="UTF-8"?>
<svg width="34px" height="35px" viewBox="0 0 34 35" version="1.1" xmlns="http://www.w3.org/2000/svg" xmlns:xlink="http://www.w3.org/1999/xlink">
    <!-- Generator: Sketch 53 (72520) - https://sketchapp.com -->
    <title>practera-mark</title>
    <desc>Created with Sketch.</desc>
    <defs>
        <path d="M8.76429226,28.8470174 C12.141262,30.7948962 15.9945953,31.9100477 19.8648983,32.083381 C14.5024741,36.2215628 6.53398923,35.1791386 2.58974681,29.6070174 C0.872171052,27.1815628 0.124292264,24.153684 0.449140749,21.2045931 C0.837019537,17.683381 2.85156499,14.603381 5.26611045,12.1039871 C5.26611045,12.1088356 5.26489832,12.113684 5.26489832,12.1173204 C6.85156499,10.4809568 9.27944378,8.16216889 11.6285347,7.82641131 C13.9473226,7.49550222 15.9158074,8.83247192 16.961868,10.8070174 C12.5000498,11.8918659 8.43217105,14.8106537 6.19095893,18.8664113 C4.2976256,22.2918659 5.30004984,26.8470174 8.76429226,28.8470174 Z M0.77835287,9.5453204 C2.27532257,3.63986586 8.04259529,-0.241346265 14.0741104,0.619259795 C19.9347165,1.45683555 23.5504741,6.20350222 25.0971407,11.5998659 C25.669262,13.5962295 26.1335044,15.9041083 25.9286559,17.9938052 C25.6486559,20.8507749 23.0413832,22.4968356 20.3625953,22.3925931 C21.2716862,19.3695628 21.3153226,16.2131992 20.4789589,13.1695628 C19.6959286,10.3198659 18.3662317,7.47865373 15.5844135,6.13198707 C15.5904741,6.13077495 15.5965347,6.12956283 15.6013832,6.12713858 C9.58077711,3.19865373 3.45471651,9.63380525 0.510474082,14.2386537 C0.304413476,12.6919871 0.383201355,11.1053204 0.77835287,9.5453204 Z M28.3719286,17.5727143 C28.3719286,13.6866537 27.4131407,9.84786586 25.6119286,6.39453252 C32.7949589,9.29150222 35.5198074,18.4005931 30.845868,24.6745325 C27.4373832,29.2466537 21.9137468,30.349684 16.565868,29.239381 C14.0507165,28.7181689 10.4119286,27.7278659 8.71980742,25.6442295 C7.22283772,23.799381 7.44950439,21.4321083 8.65192863,19.5315022 C10.8895044,21.8830174 13.7270801,23.5581689 16.8834438,24.3254416 C19.6301104,24.9933204 22.625262,25.2211992 25.0931407,23.5605931 C27.0882923,22.2187749 28.3610195,19.9921083 28.3719286,17.5739265 C28.3719286,17.5739265 28.3719286,17.5727143 28.3719286,17.5727143 Z" id="path-1"></path>
    </defs>
    <g id="CUTIE-Next-2019" stroke="none" stroke-width="1" fill="none" fill-rule="evenodd">
        <g id="dashboard-50%" transform="translate(-38.000000, -26.000000)">
            <g id="navbar">
                <g id="brand" transform="translate(24.000000, 16.000000)">
                    <g id="practera-mark" transform="translate(14.000000, 10.000000)">
                        <mask id="mask-2" fill="white">
                            <use xlink:href="#path-1"></use>
                        </mask>
                        <use id="mask" fill="#2BC1D9" xlink:href="#path-1"></use>
                    </g>
                </g>
            </g>
        </g>
    </g>
</svg>